<svg width="653" height="132" viewBox="0 0 653 132" fill="none" xmlns="http://www.w3.org/2000/svg">
<g clip-path="url(#clip0_11_2)">
<mask id="mask0_11_2" style="mask-type:luminance" maskUnits="userSpaceOnUse" x="0" y="8" width="104" height="104">
<path d="M104 8H0V112H104V8Z" fill="white"/>
<path d="M39.0867 97.8733V78.1133C39.0867 74.8489 40.3433 72.0756 42.8567 69.7933C45.3411 67.4822 48.3889 66.3267 52 66.3267C55.6111 66.3267 58.6589 67.4822 61.1433 69.7933C63.6567 72.0756 64.9133 74.8489 64.9133 78.1133V97.8733H39.0867Z" fill="black"/>
</mask>
<g mask="url(#mask0_11_2)">
<path d="M88.3133 60.3033C80.3978 52.7633 72.4533 45.2378 64.48 37.7267L56.5933 30.36C55.2644 29.1178 53.7189 28.4967 51.9567 28.4967C50.1944 28.4967 48.6489 29.1178 47.32 30.36L15.8167 60.3033C15.2678 60.8522 14.8489 61.4733 14.56 62.1667C14.2711 62.86 14.1267 63.5533 14.1267 64.2467V94.6233C14.1267 96.4433 14.56 98.09 15.4267 99.5633C16.2933 101.066 17.4778 102.25 18.98 103.117C20.4822 103.983 22.1289 104.417 23.92 104.417H80.1667C81.9 104.417 83.5178 103.983 85.02 103.117C86.5222 102.25 87.7067 101.066 88.5733 99.5633C89.44 98.09 89.8733 96.4433 89.8733 94.6233V64.16C89.8733 63.4089 89.7289 62.7011 89.44 62.0367C89.1511 61.3722 88.7756 60.7944 88.3133 60.3033Z" fill="white" fill-opacity="0.8"/>
</g>
<path d="M6.45665 65.3733C7.00554 65.9222 7.77109 66.2255 8.75331 66.2833C9.70665 66.3122 10.4578 66.0522 11.0066 65.5033L45.9766 32.3099C47.71 30.6344 49.7322 29.7966 52.0433 29.7966C54.3833 29.7966 56.42 30.6344 58.1533 32.3099L93.08 65.3733C93.7155 66.0088 94.4811 66.3266 95.3766 66.3266C96.2722 66.3266 97.0378 65.9799 97.6733 65.2866C98.2222 64.6511 98.4966 63.8855 98.4966 62.9899C98.4966 62.0944 98.1789 61.3288 97.5433 60.6933L62.6167 27.6299C60.6811 25.7522 58.4278 24.4811 55.8567 23.8166C53.2855 23.1811 50.7144 23.1811 48.1433 23.8166C45.5722 24.4811 43.3189 25.7522 41.3833 27.6299L6.54331 60.6933C5.84998 61.3288 5.50331 62.0944 5.50331 62.9899C5.50331 63.8855 5.82109 64.6799 6.45665 65.3733Z" fill="#A6C8FF" fill-opacity="0.8"/>
<path d="M64.9133 78.1133C64.9133 74.8489 63.6566 72.0755 61.1433 69.7933C58.6589 67.4822 55.6111 66.3266 52 66.3266C48.3889 66.3266 45.3411 67.4822 42.8567 69.7933C40.3433 72.0755 39.0866 74.8489 39.0866 78.1133V97.8733H64.9133V78.1133Z" fill="#5595FF" fill-opacity="0.8"/>
</g>
<path d="M145 102L116.6 32H132.3L153.7 87.1L175.6 32H190.6L161.8 102H145ZM212.916 103C207.716 103 202.982 101.8 198.716 99.4C194.516 97 191.182 93.7667 188.716 89.7C186.249 85.6333 185.016 81.0667 185.016 76C185.016 70.9333 186.182 66.3667 188.516 62.3C190.916 58.2333 194.149 55 198.216 52.6C202.282 50.2 206.816 49 211.816 49C216.816 49 221.249 50.2333 225.116 52.7C228.982 55.1667 232.016 58.5 234.216 62.7C236.482 66.9 237.616 71.6667 237.616 77V80.6H199.016C199.616 82.6667 200.582 84.5333 201.916 86.2C203.316 87.8667 205.016 89.1667 207.016 90.1C209.082 91.0333 211.282 91.5 213.616 91.5C215.949 91.5 218.082 91.1333 220.016 90.4C222.016 89.6667 223.716 88.6333 225.116 87.3L234.116 95.5C230.916 98.1 227.616 100 224.216 101.2C220.882 102.4 217.116 103 212.916 103ZM198.816 70.8H224.116C223.649 68.7333 222.782 66.9333 221.516 65.4C220.316 63.8 218.849 62.5667 217.116 61.7C215.449 60.7667 213.582 60.3 211.516 60.3C209.382 60.3 207.449 60.7333 205.716 61.6C203.982 62.4667 202.516 63.7 201.316 65.3C200.182 66.8333 199.349 68.6667 198.816 70.8ZM245.009 102V32L258.709 29.7V102H245.009ZM268.423 102V49.9H282.123V102H268.423ZM275.223 43.7C273.09 43.7 271.257 42.9333 269.723 41.4C268.19 39.8667 267.423 38.0333 267.423 35.9C267.423 33.7 268.19 31.8667 269.723 30.4C271.257 28.8667 273.09 28.1 275.223 28.1C277.423 28.1 279.257 28.8667 280.723 30.4C282.257 31.8667 283.023 33.7 283.023 35.9C283.023 38.0333 282.257 39.8667 280.723 41.4C279.257 42.9333 277.423 43.7 275.223 43.7ZM317.238 103C312.038 103 307.338 101.8 303.138 99.4C298.938 97 295.604 93.7667 293.138 89.7C290.671 85.6333 289.438 81.0667 289.438 76C289.438 70.9333 290.638 66.3667 293.037 62.3C295.504 58.1667 298.838 54.9 303.038 52.5C307.304 50.1 312.038 48.9 317.238 48.9C322.438 48.9 327.138 50.1 331.338 52.5C335.604 54.9 338.938 58.1667 341.338 62.3C343.804 66.3667 345.038 70.9333 345.038 76C345.038 81.0667 343.804 85.6333 341.338 89.7C338.938 93.7667 335.638 97 331.438 99.4C327.238 101.8 322.504 103 317.238 103ZM317.238 91.1C319.971 91.1 322.404 90.4333 324.538 89.1C326.738 87.7667 328.471 85.9667 329.738 83.7C331.071 81.3667 331.738 78.8 331.738 76C331.738 73.1333 331.071 70.5667 329.738 68.3C328.471 66.0333 326.738 64.2333 324.538 62.9C322.404 61.5 319.971 60.8 317.238 60.8C314.571 60.8 312.138 61.5 309.938 62.9C307.738 64.2333 306.004 66.0333 304.738 68.3C303.471 70.5667 302.838 73.1333 302.838 76C302.838 78.8 303.471 81.3667 304.738 83.7C306.004 85.9667 307.738 87.7667 309.938 89.1C312.138 90.4333 314.571 91.1 317.238 91.1ZM371.959 103C367.159 103 362.725 102.4 358.659 101.2C354.592 99.9333 351.059 98.1333 348.059 95.8L354.859 86.7C357.859 88.7 360.725 90.2 363.459 91.2C366.259 92.2 369.025 92.7 371.759 92.7C374.825 92.7 377.259 92.2 379.059 91.2C380.925 90.1333 381.859 88.7667 381.859 87.1C381.859 85.7667 381.325 84.7 380.259 83.9C379.259 83.1 377.625 82.5333 375.359 82.2L365.359 80.7C360.159 79.9 356.225 78.2333 353.559 75.7C350.892 73.1 349.559 69.7 349.559 65.5C349.559 62.1 350.425 59.2 352.159 56.8C353.959 54.3333 356.459 52.4333 359.659 51.1C362.925 49.7 366.792 49 371.259 49C375.059 49 378.759 49.5333 382.359 50.6C386.025 51.6667 389.459 53.3 392.659 55.5L386.059 64.4C383.192 62.6 380.459 61.3 377.859 60.5C375.259 59.7 372.625 59.3 369.959 59.3C367.492 59.3 365.492 59.7667 363.959 60.7C362.492 61.6333 361.759 62.8667 361.759 64.4C361.759 65.8 362.292 66.9 363.359 67.7C364.425 68.5 366.259 69.0667 368.859 69.4L378.759 70.9C383.959 71.6333 387.925 73.3 390.659 75.9C393.392 78.4333 394.759 81.7333 394.759 85.8C394.759 89.1333 393.759 92.1 391.759 94.7C389.759 97.2333 387.059 99.2667 383.659 100.8C380.259 102.267 376.359 103 371.959 103Z" fill="white" fill-opacity="0.8"/>
<path d="M445.597 103C439.93 103 434.397 101.967 428.997 99.9C423.597 97.7667 418.797 94.7667 414.597 90.9L422.897 80.5C426.964 84.1 430.864 86.7 434.597 88.3C438.397 89.9 442.397 90.7 446.597 90.7C449.53 90.7 452.064 90.3667 454.197 89.7C456.33 88.9667 457.964 87.9333 459.097 86.6C460.297 85.2667 460.897 83.7 460.897 81.9C460.897 79.5 460.03 77.6667 458.297 76.4C456.564 75.0667 453.597 74.0333 449.397 73.3L435.497 70.9C429.564 69.9 425.03 67.8 421.897 64.6C418.83 61.4 417.297 57.2667 417.297 52.2C417.297 47.8667 418.397 44.1 420.597 40.9C422.864 37.7 426.03 35.2667 430.097 33.6C434.23 31.8667 439.13 31 444.797 31C449.93 31 455.03 31.8667 460.097 33.6C465.23 35.3333 469.764 37.7333 473.697 40.8L465.897 51.6C458.564 46 451.197 43.2 443.797 43.2C441.197 43.2 438.93 43.5333 436.997 44.2C435.064 44.8667 433.564 45.8 432.497 47C431.497 48.1333 430.997 49.5 430.997 51.1C430.997 53.2333 431.764 54.9 433.297 56.1C434.83 57.2333 437.397 58.1 440.997 58.7L454.197 60.9C461.197 62.0333 466.43 64.2667 469.897 67.6C473.364 70.8667 475.097 75.2 475.097 80.6C475.097 85.1333 473.897 89.1 471.497 92.5C469.097 95.8333 465.664 98.4333 461.197 100.3C456.797 102.1 451.597 103 445.597 103ZM505.018 102.8C499.218 102.8 494.818 101.5 491.818 98.9C488.885 96.2333 487.418 92.3667 487.418 87.3V61.3H476.718V49.9H487.418V36.6L501.118 33.5V49.9H516.018V61.3H501.118V84.5C501.118 86.9 501.651 88.6333 502.718 89.7C503.785 90.7 505.651 91.2 508.318 91.2C509.651 91.2 510.851 91.1333 511.918 91C513.051 90.8 514.285 90.4667 515.618 90V101.3C514.218 101.767 512.451 102.133 510.318 102.4C508.251 102.667 506.485 102.8 505.018 102.8ZM538.301 102.9C534.567 102.9 531.267 102.233 528.401 100.9C525.534 99.5 523.301 97.6 521.701 95.2C520.101 92.8 519.301 90.0333 519.301 86.9C519.301 81.9 521.167 78.0333 524.901 75.3C528.701 72.5 533.901 71.1 540.501 71.1C545.034 71.1 549.301 71.8 553.301 73.2V69.4C553.301 66.4 552.367 64.1333 550.501 62.6C548.634 61.0667 545.901 60.3 542.301 60.3C540.101 60.3 537.734 60.6667 535.201 61.4C532.667 62.0667 529.734 63.1333 526.401 64.6L521.401 54.5C525.534 52.6333 529.467 51.2333 533.201 50.3C537.001 49.3667 540.801 48.9 544.601 48.9C551.601 48.9 557.034 50.6 560.901 54C564.834 57.3333 566.801 62.0667 566.801 68.2V102H553.301V98.3C551.167 99.9 548.867 101.067 546.401 101.8C543.934 102.533 541.234 102.9 538.301 102.9ZM532.301 86.6C532.301 88.6 533.167 90.2 534.901 91.4C536.634 92.5333 538.934 93.1 541.801 93.1C544.067 93.1 546.167 92.8333 548.101 92.3C550.034 91.7 551.767 90.8333 553.301 89.7V82.1C551.634 81.4333 549.901 80.9333 548.101 80.6C546.301 80.2667 544.367 80.1 542.301 80.1C539.167 80.1 536.701 80.7 534.901 81.9C533.167 83.0333 532.301 84.6 532.301 86.6ZM576.17 102V49.9H589.87V55.7C591.536 53.4333 593.536 51.7 595.87 50.5C598.203 49.3 600.836 48.7 603.77 48.7C606.303 48.7667 608.203 49.1667 609.47 49.9V61.9C608.47 61.4333 607.37 61.1 606.17 60.9C604.97 60.6333 603.736 60.5 602.47 60.5C599.803 60.5 597.37 61.1667 595.17 62.5C592.97 63.8333 591.203 65.7333 589.87 68.2V102H576.17ZM640.69 102.8C634.89 102.8 630.49 101.5 627.49 98.9C624.557 96.2333 623.09 92.3667 623.09 87.3V61.3H612.39V49.9H623.09V36.6L636.79 33.5V49.9H651.69V61.3H636.79V84.5C636.79 86.9 637.323 88.6333 638.39 89.7C639.457 90.7 641.323 91.2 643.99 91.2C645.323 91.2 646.523 91.1333 647.59 91C648.723 90.8 649.957 90.4667 651.29 90V101.3C649.89 101.767 648.123 102.133 645.99 102.4C643.923 102.667 642.157 102.8 640.69 102.8Z" fill="#A6C8FF" fill-opacity="0.8"/>
<defs>
<clipPath id="clip0_11_2">
<rect width="104" height="104" fill="white" transform="translate(0 8)"/>
</clipPath>
</defs>
</svg>
