<svg width="1200" height="400" viewBox="0 0 1200 400" fill="none" xmlns="http://www.w3.org/2000/svg">
<path d="M402.2 272L460 132H484.8L542 272H519.2L503 231H440.4L424 272H402.2ZM447.2 213.6H496.2L471.8 152L447.2 213.6ZM554.034 272V170.2H574.034V183.2C577.234 178.4 581.168 174.667 585.834 172C590.634 169.2 596.034 167.8 602.034 167.8C606.168 167.933 609.568 168.533 612.234 169.6V187.6C610.368 186.8 608.434 186.267 606.434 186C604.434 185.6 602.434 185.4 600.434 185.4C594.568 185.4 589.368 187 584.834 190.2C580.301 193.267 576.701 197.8 574.034 203.8V272H554.034ZM670.194 273.8C660.46 273.8 651.594 271.467 643.594 266.8C635.594 262.133 629.26 255.8 624.594 247.8C620.06 239.8 617.794 230.867 617.794 221C617.794 211.133 620.127 202.267 624.794 194.4C629.46 186.4 635.727 180.067 643.594 175.4C651.594 170.6 660.46 168.2 670.194 168.2C677.927 168.2 685.327 169.667 692.394 172.6C699.594 175.533 705.794 179.667 710.994 185L698.594 198.8C694.727 194.533 690.394 191.333 685.594 189.2C680.794 187.067 675.794 186 670.594 186C664.46 186 658.86 187.533 653.794 190.6C648.86 193.667 644.927 197.867 641.994 203.2C639.06 208.533 637.594 214.467 637.594 221C637.594 227.533 639.06 233.467 641.994 238.8C644.927 244.133 648.927 248.4 653.994 251.6C659.06 254.667 664.727 256.2 670.994 256.2C676.194 256.2 681.06 255.2 685.594 253.2C690.127 251.067 694.394 248 698.394 244L710.594 256.8C705.26 262.267 699.06 266.467 691.994 269.4C685.06 272.333 677.794 273.8 670.194 273.8ZM726.691 272V132L746.691 127.6V180.6C754.557 172.333 764.757 168.2 777.291 168.2C785.157 168.2 792.024 169.867 797.891 173.2C803.891 176.533 808.557 181.2 811.891 187.2C815.357 193.2 817.091 200.133 817.091 208V272H797.091V211.4C797.091 203.4 794.824 197.133 790.291 192.6C785.757 187.933 779.557 185.6 771.691 185.6C766.357 185.6 761.557 186.733 757.291 189C753.024 191.267 749.491 194.533 746.691 198.8V272H726.691ZM840.167 272V170.2H860.167V272H840.167ZM850.167 153.8C846.834 153.8 843.967 152.6 841.567 150.2C839.167 147.667 837.967 144.733 837.967 141.4C837.967 137.933 839.167 135.067 841.567 132.8C843.967 130.4 846.834 129.2 850.167 129.2C853.634 129.2 856.567 130.4 858.967 132.8C861.367 135.067 862.567 137.933 862.567 141.4C862.567 144.733 861.367 147.667 858.967 150.2C856.567 152.6 853.634 153.8 850.167 153.8ZM932.522 273.8C922.522 273.8 913.455 271.467 905.322 266.8C897.322 262.133 890.922 255.8 886.122 247.8C881.455 239.8 879.122 230.867 879.122 221C879.122 211.267 881.389 202.467 885.922 194.6C890.455 186.6 896.589 180.267 904.322 175.6C912.055 170.8 920.655 168.4 930.122 168.4C939.589 168.4 947.989 170.8 955.322 175.6C962.655 180.267 968.455 186.667 972.722 194.8C977.122 202.8 979.322 211.867 979.322 222V227.6H899.122C900.189 233.2 902.255 238.2 905.322 242.6C908.522 247 912.522 250.467 917.322 253C922.255 255.533 927.589 256.8 933.322 256.8C938.255 256.8 942.989 256.067 947.522 254.6C952.189 253 956.055 250.733 959.122 247.8L971.922 260.4C965.922 264.933 959.722 268.333 953.322 270.6C947.055 272.733 940.122 273.8 932.522 273.8ZM899.322 212.6H959.522C958.722 207.267 956.855 202.6 953.922 198.6C951.122 194.467 947.589 191.267 943.322 189C939.189 186.6 934.655 185.4 929.722 185.4C924.655 185.4 919.989 186.533 915.722 188.8C911.455 191.067 907.855 194.267 904.922 198.4C902.122 202.4 900.255 207.133 899.322 212.6ZM1010.64 272V187H987.041V170.2H1010.64V154.8C1010.64 144.133 1013.57 136 1019.44 130.4C1025.44 124.8 1033.97 122 1045.04 122C1047.84 122 1050.44 122.2 1052.84 122.6C1055.37 122.867 1057.64 123.333 1059.64 124V141.2C1057.24 140.533 1055.11 140.067 1053.24 139.8C1051.37 139.4 1049.31 139.2 1047.04 139.2C1041.44 139.2 1037.24 140.533 1034.44 143.2C1031.77 145.733 1030.44 149.8 1030.44 155.4V170.2H1059.64V187H1030.44V272H1010.64Z" fill="white"/>
<path d="M149.84 159.329H337.09V255.572C337.09 276.243 320.323 293 299.64 293H187.29C166.607 293 149.84 276.243 149.84 255.572V159.329Z" fill="#8CAFF9"/>
<path d="M137 126.179C137 116.139 145.144 108 155.19 108H332.81C342.856 108 351 116.139 351 126.179V143.289C351 153.329 342.856 161.468 332.81 161.468H155.19C145.144 161.468 137 153.329 137 143.289V126.179Z" fill="#1A5FF4"/>
<path d="M203.34 201.035C203.34 195.129 208.131 190.341 214.04 190.341H272.89C278.799 190.341 283.59 195.129 283.59 201.035C283.59 206.941 278.799 211.728 272.89 211.728H214.04C208.131 211.728 203.34 206.941 203.34 201.035Z" fill="#1A5FF4"/>
</svg>
