<svg width="1200" height="400" viewBox="0 0 1200 400" fill="none" xmlns="http://www.w3.org/2000/svg">
<path d="M493.4 274.2C483.133 274.2 473.533 272.333 464.6 268.6C455.8 264.867 448.067 259.733 441.4 253.2C434.733 246.533 429.533 238.867 425.8 230.2C422.067 221.4 420.2 212 420.2 202C420.2 192 422 182.667 425.6 174C429.333 165.2 434.533 157.533 441.2 151C447.867 144.333 455.6 139.133 464.4 135.4C473.2 131.667 482.733 129.8 493 129.8C504.067 129.8 514.533 131.933 524.4 136.2C534.267 140.467 542.6 146.4 549.4 154L535 168C529.933 162 523.667 157.4 516.2 154.2C508.867 150.867 501.133 149.2 493 149.2C485.667 149.2 478.867 150.533 472.6 153.2C466.467 155.867 461.067 159.6 456.4 164.4C451.733 169.067 448.067 174.6 445.4 181C442.867 187.4 441.6 194.4 441.6 202C441.6 209.467 442.867 216.467 445.4 223C448.067 229.4 451.733 235 456.4 239.8C461.2 244.6 466.733 248.333 473 251C479.267 253.667 486.067 255 493.4 255C501.667 255 509.133 253.267 515.8 249.8C522.6 246.333 528.133 241.6 532.4 235.6C536.667 229.467 539.267 222.6 540.2 215H493.6V196.6H562.2V203.8C562.2 213.8 560.467 223.067 557 231.6C553.533 240.133 548.667 247.6 542.4 254C536.267 260.4 529 265.4 520.6 269C512.2 272.467 503.133 274.2 493.4 274.2ZM614.008 273.8C606.674 273.8 600.208 272.533 594.608 270C589.008 267.333 584.608 263.667 581.408 259C578.208 254.333 576.608 248.933 576.608 242.8C576.608 233.2 580.274 225.667 587.608 220.2C594.941 214.6 605.008 211.8 617.808 211.8C627.808 211.8 637.074 213.733 645.608 217.6V206.8C645.608 199.467 643.474 194 639.208 190.4C635.074 186.8 628.941 185 620.808 185C616.141 185 611.274 185.733 606.208 187.2C601.141 188.533 595.474 190.667 589.208 193.6L581.808 178.6C589.541 175 596.741 172.4 603.408 170.8C610.074 169.067 616.808 168.2 623.608 168.2C636.808 168.2 647.008 171.333 654.208 177.6C661.541 183.867 665.208 192.8 665.208 204.4V272H645.608V263.2C641.074 266.8 636.208 269.467 631.008 271.2C625.808 272.933 620.141 273.8 614.008 273.8ZM595.808 242.4C595.808 247.333 597.874 251.333 602.008 254.4C606.274 257.333 611.808 258.8 618.608 258.8C623.941 258.8 628.808 258.067 633.208 256.6C637.741 255 641.874 252.533 645.608 249.2V232C641.741 229.733 637.674 228.133 633.408 227.2C629.274 226.133 624.608 225.6 619.408 225.6C612.074 225.6 606.274 227.133 602.008 230.2C597.874 233.133 595.808 237.2 595.808 242.4ZM688.253 272V170.2H708.253V180C715.853 172.133 725.386 168.2 736.853 168.2C743.786 168.2 749.92 169.733 755.253 172.8C760.72 175.867 765.053 180 768.253 185.2C772.52 179.6 777.52 175.4 783.253 172.6C788.986 169.667 795.453 168.2 802.653 168.2C810.253 168.2 816.853 169.867 822.453 173.2C828.186 176.533 832.653 181.2 835.853 187.2C839.186 193.2 840.853 200.133 840.853 208V272H820.853V211.4C820.853 203.4 818.72 197.133 814.453 192.6C810.32 187.933 804.653 185.6 797.453 185.6C792.52 185.6 788.053 186.733 784.053 189C780.053 191.267 776.586 194.733 773.653 199.4C773.92 200.733 774.12 202.133 774.253 203.6C774.386 205.067 774.453 206.533 774.453 208V272H754.653V211.4C754.653 203.4 752.52 197.133 748.253 192.6C744.12 187.933 738.453 185.6 731.253 185.6C726.453 185.6 722.12 186.667 718.253 188.8C714.386 190.8 711.053 193.867 708.253 198V272H688.253ZM912.639 273.8C902.639 273.8 893.572 271.467 885.439 266.8C877.439 262.133 871.039 255.8 866.239 247.8C861.572 239.8 859.239 230.867 859.239 221C859.239 211.267 861.506 202.467 866.039 194.6C870.572 186.6 876.706 180.267 884.439 175.6C892.172 170.8 900.772 168.4 910.239 168.4C919.706 168.4 928.106 170.8 935.439 175.6C942.772 180.267 948.572 186.667 952.839 194.8C957.239 202.8 959.439 211.867 959.439 222V227.6H879.239C880.306 233.2 882.372 238.2 885.439 242.6C888.639 247 892.639 250.467 897.439 253C902.372 255.533 907.706 256.8 913.439 256.8C918.372 256.8 923.106 256.067 927.639 254.6C932.306 253 936.172 250.733 939.239 247.8L952.039 260.4C946.039 264.933 939.839 268.333 933.439 270.6C927.172 272.733 920.239 273.8 912.639 273.8ZM879.439 212.6H939.639C938.839 207.267 936.972 202.6 934.039 198.6C931.239 194.467 927.706 191.267 923.439 189C919.306 186.6 914.772 185.4 909.839 185.4C904.772 185.4 900.106 186.533 895.839 188.8C891.572 191.067 887.972 194.267 885.039 198.4C882.239 202.4 880.372 207.133 879.439 212.6ZM1014.46 274C1005.66 274 997.397 272.733 989.664 270.2C982.064 267.533 975.464 263.8 969.864 259L980.864 245.8C986.064 249.933 991.397 253.133 996.864 255.4C1002.46 257.533 1008.13 258.6 1013.86 258.6C1021.06 258.6 1026.93 257.2 1031.46 254.4C1036 251.6 1038.26 247.933 1038.26 243.4C1038.26 239.667 1036.93 236.733 1034.26 234.6C1031.6 232.467 1027.46 231 1021.86 230.2L1003.46 227.6C993.331 226.133 985.731 223 980.664 218.2C975.597 213.4 973.064 207 973.064 199C973.064 192.867 974.731 187.533 978.064 183C981.397 178.333 986.064 174.733 992.064 172.2C998.064 169.533 1005.06 168.2 1013.06 168.2C1020.4 168.2 1027.46 169.267 1034.26 171.4C1041.06 173.533 1047.6 176.867 1053.86 181.4L1043.66 194.6C1038.06 190.867 1032.6 188.133 1027.26 186.4C1022.06 184.667 1016.8 183.8 1011.46 183.8C1005.33 183.8 1000.4 185.133 996.664 187.8C992.931 190.333 991.064 193.667 991.064 197.8C991.064 201.533 992.331 204.467 994.864 206.6C997.531 208.6 1001.86 210 1007.86 210.8L1026.26 213.4C1036.4 214.867 1044.06 218 1049.26 222.8C1054.46 227.467 1057.06 233.8 1057.06 241.8C1057.06 247.933 1055.2 253.467 1051.46 258.4C1047.73 263.2 1042.66 267 1036.26 269.8C1029.86 272.6 1022.6 274 1014.46 274Z" fill="white"/>
<path d="M179.39 287C168.672 287 159.516 283.103 151.924 275.309C144.332 267.516 140.357 258.091 140 247.034C140 245.403 140.089 243.772 140.268 242.141C140.447 240.509 140.715 238.878 141.072 237.247L163.58 145.897C166.081 136.109 171.173 128.18 178.854 122.108C186.536 116.036 195.289 113 205.114 113H309.618C319.443 113 328.197 116.036 335.878 122.108C343.559 128.18 348.651 136.109 351.152 145.897L373.66 237.247C374.017 238.878 374.33 240.555 374.598 242.277C374.866 243.998 375 245.675 375 247.306C375 258.363 371.115 267.742 363.344 275.445C355.573 283.148 346.239 287 335.342 287C327.839 287 320.872 285.006 314.441 281.019C308.01 277.031 303.187 271.594 299.971 264.706L292.469 248.938C291.575 247.125 290.236 245.766 288.449 244.859C286.663 243.953 284.787 243.5 282.822 243.5H231.91C229.945 243.5 228.069 243.953 226.283 244.859C224.496 245.766 223.157 247.125 222.263 248.938L214.761 264.706C211.545 271.594 206.722 277.031 200.291 281.019C193.86 285.006 186.893 287 179.39 287Z" fill="#1A5FF4"/>
<path d="M273.492 186.406C275.782 186.406 277.687 185.62 279.205 184.046C280.723 182.475 281.483 180.527 281.483 178.201C281.483 175.877 280.707 173.945 279.157 172.405C277.608 170.864 275.688 170.094 273.396 170.094C271.105 170.094 269.201 170.88 267.683 172.454C266.164 174.025 265.405 175.974 265.405 178.299C265.405 180.623 266.18 182.555 267.731 184.095C269.28 185.636 271.2 186.406 273.492 186.406ZM294.929 164.656C297.219 164.656 299.123 163.87 300.642 162.296C302.16 160.725 302.919 158.777 302.919 156.451C302.919 154.127 302.144 152.195 300.593 150.655C299.045 149.114 297.124 148.344 294.832 148.344C292.542 148.344 290.638 149.13 289.119 150.704C287.601 152.275 286.842 154.224 286.842 156.549C286.842 158.873 287.617 160.805 289.168 162.345C290.716 163.886 292.637 164.656 294.929 164.656ZM294.929 208.156C297.219 208.156 299.123 207.37 300.642 205.796C302.16 204.225 302.919 202.277 302.919 199.951C302.919 197.628 302.144 195.695 300.593 194.155C299.045 192.614 297.124 191.844 294.832 191.844C292.542 191.844 290.638 192.63 289.119 194.204C287.601 195.775 286.842 197.724 286.842 200.049C286.842 202.373 287.617 204.305 289.168 205.845C290.716 207.386 292.637 208.156 294.929 208.156ZM316.366 186.406C318.656 186.406 320.56 185.62 322.078 184.046C323.597 182.475 324.356 180.527 324.356 178.201C324.356 175.877 323.581 173.945 322.03 172.405C320.481 170.864 318.561 170.094 316.269 170.094C313.979 170.094 312.075 170.88 310.556 172.454C309.038 174.025 308.279 175.974 308.279 178.299C308.279 180.623 309.054 182.555 310.604 184.095C312.153 185.636 314.074 186.406 316.366 186.406ZM219.884 204.078C221.828 204.078 223.425 203.437 224.675 202.153C225.926 200.868 226.551 199.244 226.551 197.281V185.047H238.609C240.544 185.047 242.144 184.402 243.411 183.111C244.676 181.822 245.308 180.191 245.308 178.217C245.308 176.245 244.676 174.625 243.411 173.356C242.144 172.088 240.544 171.453 238.609 171.453H226.551V159.219C226.551 157.256 225.915 155.632 224.643 154.347C223.373 153.064 221.765 152.422 219.82 152.422C217.876 152.422 216.279 153.064 215.029 154.347C213.778 155.632 213.153 157.256 213.153 159.219V171.453H201.095C199.16 171.453 197.56 172.098 196.293 173.389C195.028 174.678 194.396 176.309 194.396 178.283C194.396 180.255 195.028 181.875 196.293 183.144C197.56 184.413 199.16 185.047 201.095 185.047H213.153V197.281C213.153 199.244 213.789 200.868 215.061 202.153C216.331 203.437 217.939 204.078 219.884 204.078Z" fill="#E9EFFE"/>
<path d="M316.366 186.406C318.656 186.406 320.56 185.62 322.078 184.046C323.597 182.475 324.356 180.527 324.356 178.201C324.356 175.877 323.581 173.945 322.03 172.405C320.481 170.864 318.561 170.094 316.269 170.094C313.979 170.094 312.075 170.88 310.556 172.454C309.038 174.025 308.279 175.973 308.279 178.299C308.279 180.623 309.054 182.555 310.604 184.095C312.153 185.636 314.074 186.406 316.366 186.406ZM219.884 204.078C221.828 204.078 223.425 203.437 224.675 202.153C225.926 200.868 226.551 199.244 226.551 197.281V185.047H238.609C240.544 185.047 242.144 184.402 243.411 183.111C244.676 181.822 245.308 180.191 245.308 178.217C245.308 176.245 244.676 174.625 243.411 173.356C242.144 172.087 240.544 171.453 238.609 171.453H226.551V159.219C226.551 157.256 225.915 155.632 224.643 154.347C223.373 153.063 221.765 152.422 219.82 152.422C217.876 152.422 216.279 153.063 215.029 154.347C213.778 155.632 213.153 157.256 213.153 159.219V171.453H201.095C199.16 171.453 197.56 172.098 196.293 173.389C195.028 174.678 194.396 176.309 194.396 178.283C194.396 180.255 195.028 181.875 196.293 183.144C197.56 184.413 199.16 185.047 201.095 185.047H213.153V197.281C213.153 199.244 213.789 200.868 215.061 202.153C216.331 203.437 217.939 204.078 219.884 204.078Z" fill="#8CAFF9"/>
</svg>
