<svg width="1200" height="400" viewBox="0 0 1200 400" fill="none" xmlns="http://www.w3.org/2000/svg">
<rect width="1200" height="400" rx="200" fill="#1A5FF4" fill-opacity="0.3"/>
<path d="M481.2 272V132H502.2V253.4H582.8V272H481.2ZM645.373 273.8C635.373 273.8 626.307 271.467 618.173 266.8C610.173 262.133 603.773 255.8 598.973 247.8C594.307 239.8 591.973 230.867 591.973 221C591.973 211.267 594.24 202.467 598.773 194.6C603.307 186.6 609.44 180.267 617.173 175.6C624.907 170.8 633.507 168.4 642.973 168.4C652.44 168.4 660.84 170.8 668.173 175.6C675.507 180.267 681.307 186.667 685.573 194.8C689.973 202.8 692.173 211.867 692.173 222V227.6H611.973C613.04 233.2 615.107 238.2 618.173 242.6C621.373 247 625.373 250.467 630.173 253C635.107 255.533 640.44 256.8 646.173 256.8C651.107 256.8 655.84 256.067 660.373 254.6C665.04 253 668.907 250.733 671.973 247.8L684.773 260.4C678.773 264.933 672.573 268.333 666.173 270.6C659.907 272.733 652.973 273.8 645.373 273.8ZM612.173 212.6H672.373C671.573 207.267 669.707 202.6 666.773 198.6C663.973 194.467 660.44 191.267 656.173 189C652.04 186.6 647.507 185.4 642.573 185.4C637.507 185.4 632.84 186.533 628.573 188.8C624.307 191.067 620.707 194.267 617.773 198.4C614.973 202.4 613.107 207.133 612.173 212.6ZM711.222 272V170.2H731.222V183.2C734.422 178.4 738.355 174.667 743.022 172C747.822 169.2 753.222 167.8 759.222 167.8C763.355 167.933 766.755 168.533 769.422 169.6V187.6C767.555 186.8 765.622 186.267 763.622 186C761.622 185.6 759.622 185.4 757.622 185.4C751.755 185.4 746.555 187 742.022 190.2C737.489 193.267 733.889 197.8 731.222 203.8V272H711.222ZM828.381 273.8C818.381 273.8 809.315 271.467 801.181 266.8C793.181 262.133 786.781 255.8 781.981 247.8C777.315 239.8 774.981 230.867 774.981 221C774.981 211.267 777.248 202.467 781.781 194.6C786.315 186.6 792.448 180.267 800.181 175.6C807.915 170.8 816.515 168.4 825.981 168.4C835.448 168.4 843.848 170.8 851.181 175.6C858.515 180.267 864.315 186.667 868.581 194.8C872.981 202.8 875.181 211.867 875.181 222V227.6H794.981C796.048 233.2 798.115 238.2 801.181 242.6C804.381 247 808.381 250.467 813.181 253C818.115 255.533 823.448 256.8 829.181 256.8C834.115 256.8 838.848 256.067 843.381 254.6C848.048 253 851.915 250.733 854.981 247.8L867.781 260.4C861.781 264.933 855.581 268.333 849.181 270.6C842.915 272.733 835.981 273.8 828.381 273.8ZM795.181 212.6H855.381C854.581 207.267 852.715 202.6 849.781 198.6C846.981 194.467 843.448 191.267 839.181 189C835.048 186.6 830.515 185.4 825.581 185.4C820.515 185.4 815.848 186.533 811.581 188.8C807.315 191.067 803.715 194.267 800.781 198.4C797.981 202.4 796.115 207.133 795.181 212.6ZM894.23 272V170.2H914.23V180.6C922.096 172.333 932.296 168.2 944.83 168.2C952.696 168.2 959.563 169.867 965.43 173.2C971.43 176.533 976.096 181.2 979.43 187.2C982.896 193.2 984.63 200.133 984.63 208V272H964.63V211.4C964.63 203.4 962.363 197.133 957.83 192.6C953.43 187.933 947.23 185.6 939.23 185.6C933.896 185.6 929.096 186.733 924.83 189C920.563 191.267 917.03 194.533 914.23 198.8V272H894.23Z" fill="white"/>
<path d="M218.741 118.66C216.705 118.029 214.529 118.029 212.213 118.66C209.966 119.361 208.036 120.623 206.422 122.446C204.807 124.339 204 126.687 204 129.491V257.993C204 261.498 205.053 264.723 207.159 267.668C209.264 270.612 212.002 272.68 215.371 273.872L300.024 303.421C306.482 305.594 312.729 305.524 318.766 303.211L401.629 273.872C404.998 272.68 407.736 270.612 409.841 267.668C411.947 264.723 413 261.498 413 257.993V129.491C413 127.318 412.333 125.215 410.999 123.182C409.666 121.219 407.841 119.747 405.524 118.765C403.278 117.854 400.821 117.819 398.154 118.66L315.712 145.686C313.677 146.387 311.606 146.737 309.5 146.737C307.394 146.737 305.254 146.387 303.078 145.686L218.741 118.66ZM308.658 177.443C311.045 177.443 313.01 178.249 314.554 179.862C316.169 181.474 316.976 183.472 316.976 185.856V259.255C316.976 261.639 316.169 263.672 314.554 265.354C313.01 267.037 311.045 267.878 308.658 267.878C306.271 267.878 304.236 267.037 302.551 265.354C300.867 263.672 300.024 261.639 300.024 259.255V185.856C300.024 183.472 300.867 181.474 302.551 179.862C304.236 178.249 306.271 177.443 308.658 177.443Z" fill="#1A5FF4"/>
<path d="M380.15 95C349.475 100.048 325.645 115.33 308.658 140.848C298.901 127.248 288.126 116.838 276.334 109.617C264.542 102.396 251.31 97.5238 236.64 95V125.496L303.078 146.948L304.868 147.473C308.377 148.104 311.992 147.929 315.712 146.948L380.15 125.706V95Z" fill="white"/>
</svg>
