<svg width="1200" height="400" viewBox="0 0 1200 400" fill="none" xmlns="http://www.w3.org/2000/svg">
<path d="M401.6 272V150.6H352.4V132H471.8V150.6H422.6V272H401.6ZM486.972 272V132L506.972 127.6V180.6C514.839 172.333 525.039 168.2 537.572 168.2C545.439 168.2 552.305 169.867 558.172 173.2C564.172 176.533 568.839 181.2 572.172 187.2C575.639 193.2 577.372 200.133 577.372 208V272H557.372V211.4C557.372 203.4 555.105 197.133 550.572 192.6C546.039 187.933 539.839 185.6 531.972 185.6C526.639 185.6 521.839 186.733 517.572 189C513.305 191.267 509.772 194.533 506.972 198.8V272H486.972ZM649.248 273.8C639.248 273.8 630.182 271.467 622.048 266.8C614.048 262.133 607.648 255.8 602.848 247.8C598.182 239.8 595.848 230.867 595.848 221C595.848 211.267 598.115 202.467 602.648 194.6C607.182 186.6 613.315 180.267 621.048 175.6C628.782 170.8 637.382 168.4 646.848 168.4C656.315 168.4 664.715 170.8 672.048 175.6C679.382 180.267 685.182 186.667 689.448 194.8C693.848 202.8 696.048 211.867 696.048 222V227.6H615.848C616.915 233.2 618.982 238.2 622.048 242.6C625.248 247 629.248 250.467 634.048 253C638.982 255.533 644.315 256.8 650.048 256.8C654.982 256.8 659.715 256.067 664.248 254.6C668.915 253 672.782 250.733 675.848 247.8L688.648 260.4C682.648 264.933 676.448 268.333 670.048 270.6C663.782 272.733 656.848 273.8 649.248 273.8ZM616.048 212.6H676.248C675.448 207.267 673.582 202.6 670.648 198.6C667.848 194.467 664.315 191.267 660.048 189C655.915 186.6 651.382 185.4 646.448 185.4C641.382 185.4 636.715 186.533 632.448 188.8C628.182 191.067 624.582 194.267 621.648 198.4C618.848 202.4 616.982 207.133 616.048 212.6ZM715.097 272V170.2H735.097V180C742.697 172.133 752.23 168.2 763.697 168.2C770.63 168.2 776.764 169.733 782.097 172.8C787.564 175.867 791.897 180 795.097 185.2C799.364 179.6 804.364 175.4 810.097 172.6C815.83 169.667 822.297 168.2 829.497 168.2C837.097 168.2 843.697 169.867 849.297 173.2C855.03 176.533 859.497 181.2 862.697 187.2C866.03 193.2 867.697 200.133 867.697 208V272H847.697V211.4C847.697 203.4 845.564 197.133 841.297 192.6C837.164 187.933 831.497 185.6 824.297 185.6C819.364 185.6 814.897 186.733 810.897 189C806.897 191.267 803.43 194.733 800.497 199.4C800.764 200.733 800.964 202.133 801.097 203.6C801.23 205.067 801.297 206.533 801.297 208V272H781.497V211.4C781.497 203.4 779.364 197.133 775.097 192.6C770.964 187.933 765.297 185.6 758.097 185.6C753.297 185.6 748.964 186.667 745.097 188.8C741.23 190.8 737.897 193.867 735.097 198V272H715.097ZM922.883 273.8C915.549 273.8 909.083 272.533 903.483 270C897.883 267.333 893.483 263.667 890.283 259C887.083 254.333 885.483 248.933 885.483 242.8C885.483 233.2 889.149 225.667 896.483 220.2C903.816 214.6 913.883 211.8 926.683 211.8C936.683 211.8 945.949 213.733 954.483 217.6V206.8C954.483 199.467 952.349 194 948.083 190.4C943.949 186.8 937.816 185 929.683 185C925.016 185 920.149 185.733 915.083 187.2C910.016 188.533 904.349 190.667 898.083 193.6L890.683 178.6C898.416 175 905.616 172.4 912.283 170.8C918.949 169.067 925.683 168.2 932.483 168.2C945.683 168.2 955.883 171.333 963.083 177.6C970.416 183.867 974.083 192.8 974.083 204.4V272H954.483V263.2C949.949 266.8 945.083 269.467 939.883 271.2C934.683 272.933 929.016 273.8 922.883 273.8ZM904.683 242.4C904.683 247.333 906.749 251.333 910.883 254.4C915.149 257.333 920.683 258.8 927.483 258.8C932.816 258.8 937.683 258.067 942.083 256.6C946.616 255 950.749 252.533 954.483 249.2V232C950.616 229.733 946.549 228.133 942.283 227.2C938.149 226.133 933.483 225.6 928.283 225.6C920.949 225.6 915.149 227.133 910.883 230.2C906.749 233.133 904.683 237.2 904.683 242.4ZM989.445 172.8L1001.85 126.2H1023.05L1004.65 172.8H989.445ZM1070.41 274C1061.61 274 1053.34 272.733 1045.61 270.2C1038.01 267.533 1031.41 263.8 1025.81 259L1036.81 245.8C1042.01 249.933 1047.34 253.133 1052.81 255.4C1058.41 257.533 1064.08 258.6 1069.81 258.6C1077.01 258.6 1082.88 257.2 1087.41 254.4C1091.94 251.6 1094.21 247.933 1094.21 243.4C1094.21 239.667 1092.88 236.733 1090.21 234.6C1087.54 232.467 1083.41 231 1077.81 230.2L1059.41 227.6C1049.28 226.133 1041.68 223 1036.61 218.2C1031.54 213.4 1029.01 207 1029.01 199C1029.01 192.867 1030.68 187.533 1034.01 183C1037.34 178.333 1042.01 174.733 1048.01 172.2C1054.01 169.533 1061.01 168.2 1069.01 168.2C1076.34 168.2 1083.41 169.267 1090.21 171.4C1097.01 173.533 1103.54 176.867 1109.81 181.4L1099.61 194.6C1094.01 190.867 1088.54 188.133 1083.21 186.4C1078.01 184.667 1072.74 183.8 1067.41 183.8C1061.28 183.8 1056.34 185.133 1052.61 187.8C1048.88 190.333 1047.01 193.667 1047.01 197.8C1047.01 201.533 1048.28 204.467 1050.81 206.6C1053.48 208.6 1057.81 210 1063.81 210.8L1082.21 213.4C1092.34 214.867 1100.01 218 1105.21 222.8C1110.41 227.467 1113.01 233.8 1113.01 241.8C1113.01 247.933 1111.14 253.467 1107.41 258.4C1103.68 263.2 1098.61 267 1092.21 269.8C1085.81 272.6 1078.54 274 1070.41 274Z" fill="white"/>
<path d="M239.251 226.09C239.251 226.09 235.06 221.943 231.81 222.197C222.847 222.898 209.085 227.772 199.765 231.444C193.757 233.811 186.809 232.28 182.488 227.392L175.314 219.276L276.294 148.569L282.044 158.757C285.034 164.053 284.542 170.601 280.817 175.332C274.136 183.817 263.914 196.901 260.004 202.456C258.092 205.172 260.828 210.982 260.828 210.982L299.665 263.392C299.716 263.46 299.761 263.522 299.807 263.594C300.55 264.748 307.126 275.662 295.517 283.79C283.971 291.875 275.988 282.113 275.085 280.932C275.026 280.854 274.973 280.777 274.92 280.695L239.251 226.09Z" fill="#1A5FF4"/>
<path d="M134.183 167.883C129.16 160.709 130.563 150.911 137.434 145.634C148.482 137.149 164.903 124.706 177.511 115.872C190.305 106.907 207.885 95.5519 219.763 87.989C227.071 83.3364 236.756 85.3689 241.78 92.5433L276.294 148.569L175.314 219.276L134.183 167.883Z" fill="#8CAFF9"/>
</svg>
