<svg width="1200" height="400" viewBox="0 0 1200 400" fill="none" xmlns="http://www.w3.org/2000/svg">
<path d="M534.6 272V150.6H485.4V132H604.8V150.6H555.6V272H534.6ZM645.13 274C635.263 274 626.263 271.667 618.13 267C610.13 262.333 603.796 256 599.13 248C594.463 240 592.13 231.067 592.13 221.2C592.13 211.333 594.463 202.4 599.13 194.4C603.796 186.4 610.13 180.067 618.13 175.4C626.263 170.6 635.263 168.2 645.13 168.2C655.13 168.2 664.13 170.6 672.13 175.4C680.13 180.067 686.463 186.4 691.13 194.4C695.796 202.4 698.13 211.333 698.13 221.2C698.13 231.067 695.796 240 691.13 248C686.463 256 680.13 262.333 672.13 267C664.13 271.667 655.13 274 645.13 274ZM645.13 256.4C651.396 256.4 657.063 254.867 662.13 251.8C667.196 248.6 671.196 244.333 674.13 239C677.063 233.667 678.53 227.667 678.53 221C678.53 214.467 676.996 208.6 673.93 203.4C670.996 198.067 666.996 193.8 661.93 190.6C656.996 187.4 651.396 185.8 645.13 185.8C638.863 185.8 633.196 187.4 628.13 190.6C623.196 193.8 619.196 198.067 616.13 203.4C613.196 208.6 611.73 214.467 611.73 221C611.73 227.667 613.196 233.667 616.13 239C619.063 244.333 623.063 248.6 628.13 251.8C633.196 254.867 638.863 256.4 645.13 256.4ZM765.442 274C755.576 274 746.576 271.667 738.442 267C730.442 262.333 724.109 256 719.442 248C714.776 240 712.442 231.067 712.442 221.2C712.442 211.333 714.776 202.4 719.442 194.4C724.109 186.4 730.442 180.067 738.442 175.4C746.576 170.6 755.576 168.2 765.442 168.2C775.442 168.2 784.442 170.6 792.442 175.4C800.442 180.067 806.776 186.4 811.442 194.4C816.109 202.4 818.442 211.333 818.442 221.2C818.442 231.067 816.109 240 811.442 248C806.776 256 800.442 262.333 792.442 267C784.442 271.667 775.442 274 765.442 274ZM765.442 256.4C771.709 256.4 777.376 254.867 782.442 251.8C787.509 248.6 791.509 244.333 794.442 239C797.376 233.667 798.842 227.667 798.842 221C798.842 214.467 797.309 208.6 794.242 203.4C791.309 198.067 787.309 193.8 782.242 190.6C777.309 187.4 771.709 185.8 765.442 185.8C759.176 185.8 753.509 187.4 748.442 190.6C743.509 193.8 739.509 198.067 736.442 203.4C733.509 208.6 732.042 214.467 732.042 221C732.042 227.667 733.509 233.667 736.442 239C739.376 244.333 743.376 248.6 748.442 251.8C753.509 254.867 759.176 256.4 765.442 256.4ZM837.355 272V132L857.355 128.2V272H837.355ZM915.909 274C907.109 274 898.843 272.733 891.109 270.2C883.509 267.533 876.909 263.8 871.309 259L882.309 245.8C887.509 249.933 892.843 253.133 898.309 255.4C903.909 257.533 909.576 258.6 915.309 258.6C922.509 258.6 928.376 257.2 932.909 254.4C937.443 251.6 939.709 247.933 939.709 243.4C939.709 239.667 938.376 236.733 935.709 234.6C933.043 232.467 928.909 231 923.309 230.2L904.909 227.6C894.776 226.133 887.176 223 882.109 218.2C877.043 213.4 874.509 207 874.509 199C874.509 192.867 876.176 187.533 879.509 183C882.843 178.333 887.509 174.733 893.509 172.2C899.509 169.533 906.509 168.2 914.509 168.2C921.843 168.2 928.909 169.267 935.709 171.4C942.509 173.533 949.043 176.867 955.309 181.4L945.109 194.6C939.509 190.867 934.043 188.133 928.709 186.4C923.509 184.667 918.243 183.8 912.909 183.8C906.776 183.8 901.843 185.133 898.109 187.8C894.376 190.333 892.509 193.667 892.509 197.8C892.509 201.533 893.776 204.467 896.309 206.6C898.976 208.6 903.309 210 909.309 210.8L927.709 213.4C937.843 214.867 945.509 218 950.709 222.8C955.909 227.467 958.509 233.8 958.509 241.8C958.509 247.933 956.643 253.467 952.909 258.4C949.176 263.2 944.109 267 937.709 269.8C931.309 272.6 924.043 274 915.909 274Z" fill="white"/>
<path d="M400.239 285.488C398.213 287.504 394.934 287.504 392.909 285.488L308.369 201.338L328.95 180.851L413.478 264.99C415.507 267.01 415.507 270.29 413.478 272.31L400.239 285.488ZM308.369 201.338L295.138 188.168C293.243 186.281 290.173 186.281 288.278 188.168C286.383 190.054 283.313 190.054 281.418 188.168L281.189 187.94C277.926 184.692 272.352 186.996 272.352 191.594V196.998C272.352 198.371 271.805 199.688 270.83 200.658L269.157 202.323C267.132 204.339 263.852 204.339 261.827 202.323L239.522 180.121C237.493 178.101 237.493 174.822 239.522 172.801L241.187 171.144C242.159 170.176 243.478 169.633 244.852 169.633H250.558C255.071 169.633 257.329 164.19 254.135 161.011C252.154 159.039 252.154 155.838 254.135 153.865L285.338 122.807C288.605 119.555 292.117 117.197 295.873 115.734C299.63 114.271 303.469 113.539 307.389 113.539C311.309 113.539 315.148 114.271 318.905 115.734C321.2 116.628 323.404 117.856 325.516 119.418C327.82 121.121 327.793 124.446 325.763 126.467L310.576 141.584C308.546 143.604 308.546 146.884 310.576 148.904L315.719 154.024C317.613 155.909 317.613 158.968 315.719 160.853C313.826 162.738 313.826 165.797 315.719 167.681L328.95 180.851C579.629 -68.6746 185.364 323.776 308.369 201.338Z" fill="#8CAFF9"/>
<path d="M265.028 285.486C263.009 287.505 259.739 287.505 257.719 285.486L244.518 272.285C242.494 270.261 242.494 266.976 244.518 264.953L348.457 161.019C349.881 159.595 350.323 157.48 349.795 155.535C349.575 154.727 349.378 153.903 349.204 153.065C348.796 151.111 348.593 149.156 348.593 147.202C348.593 137.593 351.891 129.49 358.487 122.894C365.084 116.298 373.187 113 382.796 113C385.24 113 387.56 113.244 389.759 113.733C393.067 114.468 393.866 118.543 391.469 120.941L375.957 136.451C373.933 138.475 373.933 141.76 375.957 143.783L386.227 154.053C388.246 156.072 391.517 156.072 393.536 154.053L409.029 138.56C411.51 136.08 415.75 136.787 416.389 140.239C416.796 142.438 417 144.759 417 147.202C417 156.811 413.702 164.914 407.105 171.51C400.509 178.106 392.406 181.404 382.796 181.404C380.842 181.404 378.887 181.241 376.933 180.915C376.168 180.788 375.416 180.623 374.677 180.421C372.599 179.853 370.305 180.214 368.781 181.738L265.028 285.486Z" fill="#1A5FF4"/>
</svg>
