<svg width="256" height="256" viewBox="0 0 256 256" fill="none" xmlns="http://www.w3.org/2000/svg">
<rect width="256" height="256" rx="70" fill="#1A5FF4"/>
<path d="M110.274 159.657C109.968 152.597 110.274 146.611 111.193 141.699C112.112 136.787 113.949 132.413 116.705 128.576C119.461 124.585 123.213 120.824 127.959 117.294L139.902 108.775C144.649 105.245 148.018 102.022 150.008 99.1054C152.152 96.0356 153.224 92.889 153.224 89.6657C153.224 86.1355 152.152 83.0656 150.008 80.4563C147.865 77.6935 144.955 75.5446 141.28 74.0097C137.606 72.3213 133.395 71.4771 128.648 71.4771C121.758 71.4771 115.404 73.2423 109.585 76.7725C103.767 80.3028 99.3266 85.061 96.2642 91.0471L71 80.4563C74.3686 73.0888 78.9621 66.7957 84.7805 61.577C90.5989 56.3583 97.336 52.2908 104.992 49.3745C112.801 46.4582 121.069 45 129.797 45C140.209 45 149.472 46.9186 157.587 50.7559C165.703 54.4397 172.133 59.5048 176.88 65.9515C181.627 72.3981 184 79.7656 184 88.0541C184 93.5797 183.081 98.5682 181.244 103.019C179.56 107.317 176.65 111.538 172.516 115.682C168.382 119.827 162.717 124.355 155.52 129.266L149.319 133.641C144.419 136.864 140.974 140.471 138.984 144.462C137.146 148.453 136.381 153.518 136.687 159.657H110.274ZM123.596 211C118.543 211 114.179 209.158 110.504 205.474C106.829 201.791 104.992 197.416 104.992 192.351C104.992 187.132 106.829 182.681 110.504 178.997C114.179 175.313 118.543 173.472 123.596 173.472C128.648 173.472 133.012 175.313 136.687 178.997C140.362 182.681 142.199 187.132 142.199 192.351C142.199 197.416 140.362 201.791 136.687 205.474C133.012 209.158 128.648 211 123.596 211Z" fill="white"/>
<path d="M110.504 205.474C114.179 209.158 118.543 211 123.596 211C128.648 211 133.012 209.158 136.687 205.474C140.362 201.791 142.199 197.416 142.199 192.351C142.199 187.132 140.362 182.681 136.687 178.997C133.012 175.313 128.648 173.472 123.596 173.472C118.543 173.472 114.179 175.313 110.504 178.997C106.829 182.681 104.992 187.132 104.992 192.351C104.992 197.416 106.829 201.791 110.504 205.474Z" fill="#8CAFF9"/>
</svg>
