<svg width="148" height="148" viewBox="0 0 148 148" fill="none" xmlns="http://www.w3.org/2000/svg">
<path fill-rule="evenodd" clip-rule="evenodd" d="M60 0C93.1371 0 120 26.8629 120 60C120 93.1371 93.1371 120 60 120C26.8629 120 0 93.1371 0 60C0 26.8629 26.8629 0 60 0ZM60 20C37.9086 20 20 37.9086 20 60C20 82.0914 37.9086 100 60 100C82.0914 100 100 82.0914 100 60C100 37.9086 82.0914 20 60 20Z" fill="white" fill-opacity="0.9"/>
<path d="M144.917 130.774C148.822 134.68 148.822 141.012 144.917 144.917C141.012 148.822 134.68 148.822 130.774 144.917L94.7666 108.907C100.231 105.016 105.016 100.231 108.907 94.7666L144.917 130.774Z" fill="white" fill-opacity="0.6"/>
</svg>
